<svg width="17" height="17" viewBox="0 0 17 17" fill="none" xmlns="http://www.w3.org/2000/svg">
<g clip-path="url(#clip0_1_494)">
<path d="M7.16663 9.42826C7.45293 9.81101 7.8182 10.1277 8.23766 10.3569C8.65712 10.5861 9.12096 10.7223 9.59773 10.7565C10.0745 10.7906 10.553 10.7218 11.0009 10.5548C11.4487 10.3877 11.8554 10.1263 12.1933 9.78826L14.1933 7.78826C14.8005 7.15959 15.1365 6.31758 15.1289 5.44359C15.1213 4.5696 14.7707 3.73356 14.1527 3.11553C13.5347 2.49751 12.6986 2.14694 11.8246 2.13935C10.9506 2.13175 10.1086 2.46773 9.47996 3.07493L8.33329 4.21493" stroke="#003057" stroke-width="2" stroke-linecap="round" stroke-linejoin="round"/>
<path d="M9.83334 8.09492C9.54704 7.71216 9.18177 7.39546 8.76231 7.16629C8.34285 6.93712 7.87901 6.80084 7.40224 6.76669C6.92548 6.73255 6.44695 6.80134 5.99911 6.9684C5.55127 7.13545 5.1446 7.39687 4.80668 7.73492L2.80668 9.73492C2.19948 10.3636 1.8635 11.2056 1.8711 12.0796C1.87869 12.9536 2.22926 13.7896 2.84728 14.4076C3.46531 15.0257 4.30135 15.3762 5.17534 15.3838C6.04933 15.3914 6.89134 15.0554 7.52001 14.4483L8.66001 13.3083" stroke="#003057" stroke-width="2" stroke-linecap="round" stroke-linejoin="round"/>
</g>
<defs>
<clipPath id="clip0_1_494">
<rect width="16" height="16" fill="white" transform="translate(0.5 0.761597)"/>
</clipPath>
</defs>
</svg>
