<svg width="18" height="19" viewBox="0 0 18 19" fill="none" xmlns="http://www.w3.org/2000/svg">
<g clip-path="url(#clip0_5355_2155)">
<path d="M6.75 16.9221C7.16421 16.9221 7.5 16.5863 7.5 16.1721C7.5 15.7579 7.16421 15.4221 6.75 15.4221C6.33579 15.4221 6 15.7579 6 16.1721C6 16.5863 6.33579 16.9221 6.75 16.9221Z" stroke="#003057" stroke-width="2" stroke-linecap="round" stroke-linejoin="round"/>
<path d="M15 16.9221C15.4142 16.9221 15.75 16.5863 15.75 16.1721C15.75 15.7579 15.4142 15.4221 15 15.4221C14.5858 15.4221 14.25 15.7579 14.25 16.1721C14.25 16.5863 14.5858 16.9221 15 16.9221Z" stroke="#003057" stroke-width="2" stroke-linecap="round" stroke-linejoin="round"/>
<path d="M0.75 1.17212H3.75L5.76 11.2146C5.82858 11.5599 6.01643 11.8701 6.29066 12.0908C6.56489 12.3116 6.90802 12.4289 7.26 12.4221H14.55C14.902 12.4289 15.2451 12.3116 15.5193 12.0908C15.7936 11.8701 15.9814 11.5599 16.05 11.2146L17.25 4.92212H4.5" stroke="#003057" stroke-width="2" stroke-linecap="round" stroke-linejoin="round"/>
</g>
<defs>
<clipPath id="clip0_5355_2155">
<rect width="18" height="18" fill="white" transform="translate(0 0.422119)"/>
</clipPath>
</defs>
</svg>
