<svg width="19" height="19" viewBox="0 0 19 19" fill="none" xmlns="http://www.w3.org/2000/svg">
<g clip-path="url(#clip0_1_701)">
<path d="M8 10.1412C8.32209 10.5718 8.73302 10.9281 9.20491 11.1859C9.67681 11.4437 10.1986 11.597 10.735 11.6355C11.2713 11.6739 11.8097 11.5965 12.3135 11.4085C12.8173 11.2206 13.2748 10.9265 13.655 10.5462L15.905 8.29621C16.5881 7.58895 16.9661 6.64169 16.9575 5.65845C16.949 4.67522 16.5546 3.73467 15.8593 3.03939C15.164 2.34411 14.2235 1.94973 13.2403 1.94118C12.257 1.93264 11.3098 2.31062 10.6025 2.99371L9.3125 4.27621" stroke="white" stroke-width="2" stroke-linecap="round" stroke-linejoin="round"/>
<path d="M11 8.64122C10.6779 8.21062 10.267 7.85433 9.79511 7.59652C9.32322 7.3387 8.8014 7.18538 8.26504 7.14697C7.72868 7.10856 7.19034 7.18595 6.68652 7.37388C6.1827 7.56182 5.72519 7.85592 5.34503 8.23622L3.09503 10.4862C2.41194 11.1935 2.03396 12.1407 2.0425 13.124C2.05104 14.1072 2.44543 15.0478 3.14071 15.743C3.83599 16.4383 4.77654 16.8327 5.75977 16.8412C6.74301 16.8498 7.69027 16.4718 8.39753 15.7887L9.68003 14.5062" stroke="white" stroke-width="2" stroke-linecap="round" stroke-linejoin="round"/>
</g>
<defs>
<clipPath id="clip0_1_701">
<rect width="18" height="18" fill="white" transform="translate(0.5 0.391235)"/>
</clipPath>
</defs>
</svg>
