<svg width="18" height="19" viewBox="0 0 18 19" fill="none" xmlns="http://www.w3.org/2000/svg">
<g clip-path="url(#clip0_1_562)">
<path d="M7.5 10.0116C7.82209 10.4422 8.23302 10.7985 8.70491 11.0563C9.17681 11.3141 9.69863 11.4674 10.235 11.5059C10.7713 11.5443 11.3097 11.4669 11.8135 11.2789C12.3173 11.091 12.7748 10.7969 13.155 10.4166L15.405 8.1666C16.0881 7.45934 16.4661 6.51208 16.4575 5.52885C16.449 4.54561 16.0546 3.60506 15.3593 2.90978C14.664 2.2145 13.7235 1.82012 12.7403 1.81157C11.757 1.80303 10.8098 2.18101 10.1025 2.8641L8.8125 4.1466" stroke="white" stroke-width="2" stroke-linecap="round" stroke-linejoin="round"/>
<path d="M10.5 8.5116C10.1779 8.081 9.76701 7.72471 9.29511 7.46689C8.82322 7.20907 8.3014 7.05576 7.76504 7.01735C7.22868 6.97893 6.69034 7.05632 6.18652 7.24426C5.6827 7.4322 5.22519 7.7263 4.84503 8.1066L2.59503 10.3566C1.91194 11.0639 1.53396 12.0111 1.5425 12.9944C1.55104 13.9776 1.94543 14.9181 2.64071 15.6134C3.33599 16.3087 4.27654 16.7031 5.25977 16.7116C6.24301 16.7202 7.19027 16.3422 7.89753 15.6591L9.18003 14.3766" stroke="white" stroke-width="2" stroke-linecap="round" stroke-linejoin="round"/>
</g>
<defs>
<clipPath id="clip0_1_562">
<rect width="18" height="18" fill="white" transform="translate(0 0.261597)"/>
</clipPath>
</defs>
</svg>
