<svg width="19" height="19" viewBox="0 0 19 19" fill="none" xmlns="http://www.w3.org/2000/svg">
<g clip-path="url(#clip0_5355_3045)">
<path d="M7.25 17.0209C7.66421 17.0209 8 16.6851 8 16.2709C8 15.8567 7.66421 15.5209 7.25 15.5209C6.83579 15.5209 6.5 15.8567 6.5 16.2709C6.5 16.6851 6.83579 17.0209 7.25 17.0209Z" stroke="white" stroke-width="2" stroke-linecap="round" stroke-linejoin="round"/>
<path d="M15.5 17.0209C15.9142 17.0209 16.25 16.6851 16.25 16.2709C16.25 15.8567 15.9142 15.5209 15.5 15.5209C15.0858 15.5209 14.75 15.8567 14.75 16.2709C14.75 16.6851 15.0858 17.0209 15.5 17.0209Z" stroke="white" stroke-width="2" stroke-linecap="round" stroke-linejoin="round"/>
<path d="M1.25 1.27087H4.25L6.26 11.3134C6.32858 11.6587 6.51643 11.9688 6.79066 12.1896C7.06489 12.4104 7.40802 12.5276 7.76 12.5209H15.05C15.402 12.5276 15.7451 12.4104 16.0193 12.1896C16.2936 11.9688 16.4814 11.6587 16.55 11.3134L17.75 5.02087H5" stroke="white" stroke-width="2" stroke-linecap="round" stroke-linejoin="round"/>
</g>
<defs>
<clipPath id="clip0_5355_3045">
<rect width="18" height="18" fill="white" transform="translate(0.5 0.520874)"/>
</clipPath>
</defs>
</svg>
