<svg width="25" height="25" viewBox="0 0 25 25" fill="none" xmlns="http://www.w3.org/2000/svg">
<path d="M10.5 13.0208C10.9295 13.595 11.4774 14.07 12.1066 14.4138C12.7357 14.7575 13.4315 14.962 14.1467 15.0132C14.8618 15.0644 15.5796 14.9612 16.2513 14.7106C16.9231 14.46 17.5331 14.0679 18.04 13.5608L21.04 10.5608C21.9508 9.61783 22.4548 8.35482 22.4434 7.04383C22.432 5.73285 21.9061 4.47879 20.9791 3.55175C20.0521 2.62471 18.798 2.09886 17.487 2.08747C16.176 2.07608 14.913 2.58005 13.97 3.49084L12.25 5.20084" stroke="#003057" stroke-width="2" stroke-linecap="round" stroke-linejoin="round"/>
<path d="M14.5 11.0209C14.0706 10.4467 13.5227 9.97167 12.8935 9.62792C12.2643 9.28416 11.5685 9.07974 10.8534 9.02852C10.1382 8.9773 9.42043 9.08049 8.74867 9.33107C8.07691 9.58166 7.4669 9.97379 6.96002 10.4809L3.96002 13.4809C3.04923 14.4239 2.54525 15.6869 2.55665 16.9979C2.56804 18.3088 3.09388 19.5629 4.02092 20.4899C4.94796 21.417 6.20203 21.9428 7.51301 21.9542C8.82399 21.9656 10.087 21.4616 11.03 20.5509L12.74 18.8409" stroke="#003057" stroke-width="2" stroke-linecap="round" stroke-linejoin="round"/>
</svg>
